<?xml version="1.0" standalone="no"?>
<!DOCTYPE svg PUBLIC "-//W3C//DTD SVG 20010904//EN"
 "http://www.w3.org/TR/2001/REC-SVG-20010904/DTD/svg10.dtd">
<svg version="1.0" xmlns="http://www.w3.org/2000/svg"
 width="313.000000pt" height="313.000000pt" viewBox="0 0 313.000000 313.000000"
 preserveAspectRatio="xMidYMid meet">
<metadata>
Created by potrace 1.11, written by Peter Selinger 2001-2013
</metadata>
<g transform="translate(0.000000,313.000000) scale(0.100000,-0.100000)"
fill="#000000" stroke="none">
<path d="M1100 2774 c-14 -2 -56 -9 -95 -15 -272 -44 -546 -208 -710 -427
-227 -302 -289 -658 -185 -1067 115 -453 412 -755 859 -872 132 -34 359 -43
481 -19 398 81 735 435 907 953 31 95 50 140 57 134 6 -5 75 -58 153 -120 78
-61 146 -111 151 -111 11 0 345 400 339 406 -3 4 -327 74 -482 106 -13 2 36
32 150 91 94 48 181 96 195 107 l24 18 -48 129 c-66 174 -152 343 -175 343 -5
0 -93 -90 -196 -200 -103 -110 -190 -200 -194 -200 -4 0 -21 28 -37 63 -49
105 -164 267 -249 352 -158 159 -349 261 -577 311 -69 15 -315 27 -368 18z
m374 -804 c193 -13 308 -37 430 -90 169 -74 256 -167 256 -275 0 -87 -25 -142
-99 -215 -73 -72 -145 -108 -308 -155 -174 -51 -251 -60 -498 -60 -404 1 -641
56 -824 193 -135 101 -172 206 -115 320 66 133 289 248 540 281 98 12 430 13
618 1z"/>
<path d="M556 1713 c-30 -218 36 -311 230 -330 44 -4 75 -1 109 10 52 18 135
80 135 102 0 10 -269 164 -436 248 l-31 16 -7 -46z"/>
<path d="M1692 1655 c-106 -58 -210 -116 -233 -131 l-41 -26 38 -39 c61 -63
112 -82 197 -77 153 10 266 110 267 236 0 47 -18 130 -30 137 -4 2 -93 -43
-198 -100z"/>
</g>
</svg>
